# xmcd
#
# Track frame offsets: 
#        182
#        27677
#        53910
#        86285
#        110695
#        131767
#        158757
#        183652
#        199810
#        217347
#        227387
#        239307
#        252080
#        274382
#        288970
#        308265
#        337055
#
# Disc length: 4494 seconds
#
# Revision: 4
# Processed by: cddbd v1.5.2PL0 Copyright (c) Steve Scherf et al.
# Submitted via: ExactAudioCopyFreeDBPlugin 1.0
#
DISCID=fb118c11
DTITLE=Ray Charles - Ray Charles:  Genius and Soul - The 50th Anniversar
DTITLE=y Collection [Rhino box set]
DYEAR=1997
DGENRE=Rhythm and Blues
TTITLE0=Living for the City
TTITLE1=Till There Was You
TTITLE2=Am I Blue
TTITLE3=How Long Has This Been Going On
TTITLE4=The Jealous Kind
TTITLE5=Is There Anyone Out There?
TTITLE6=Don't You Love Me Anymore?
TTITLE7=One of These Days
TTITLE8=Seven Spanish Angels (with Willie Nelson)
TTITLE9=We Didn't See a Thing (with George Jones and Chet Atkins)
TTITLE10=Two Old Cats Like Us (with Hank Williams, Jr.)
TTITLE11=Shake Your Tailfeather (with The Blues Brothers)
TTITLE12=I'll Be Good to You (Quincy Jones with Ray Charles and Chaka 
TTITLE12=Khan)
TTITLE13=That's Where It's At (Lou Rawls with Ray Charles)
TTITLE14=A Song for You
TTITLE15=Still Crazy After All These Years
TTITLE16=no content
EXTD=
EXTT0=
EXTT1=
EXTT2=
EXTT3=
EXTT4=
EXTT5=
EXTT6=
EXTT7=
EXTT8=
EXTT9=
EXTT10=
EXTT11=
EXTT12=
EXTT13=
EXTT14=
EXTT15=
EXTT16=
PLAYORDER=
